<svg
  width="26"
  height="34"
  viewBox="0 0 26 34"
  fill="none"
  xmlns="http://www.w3.org/2000/svg"
>
<g clip-path="url(#clip0_8217_194986)">
<path
      d="M9.82857 13.2819C10.3429 13.6677 12.2719 13.882 12.9852 13.8605C13.1588 13.8553 13.2697 13.7848 13.3392 13.682C13.409 13.7848 13.5198 13.8553 13.6933 13.8605C14.4067 13.882 16.3356 13.6677 16.8501 13.2819C17.3645 12.8961 16.9358 12.1459 17.0216 11.7601C17.1073 11.3742 18.1574 10.0882 19.1006 10.0454C20.0436 10.0026 21.7369 10.6884 22.2085 12.2531C22.6799 13.8178 22.5513 15.4252 21.3511 16.0896C20.1508 16.7541 19.0149 16.3896 18.8005 16.0896C18.5862 15.7897 17.686 15.811 17.343 16.2611C17.0001 16.7112 15.7998 17.5043 15.7998 17.9758C15.7998 17.9998 15.8 18.024 15.8003 18.0484C15.5521 17.9308 15.2529 17.8819 15.106 18.2134C14.8303 18.8362 14.3127 20.6242 14.4507 21.226C14.5885 21.8277 15.472 21.6438 15.6658 21.9564C16.9624 24.0478 15.6434 25.7436 14.3062 26.2283C14.29 25.9043 14.1599 23.2775 14.1794 22.8054C14.2005 22.2991 14.3092 18.3041 14.3105 18.2637C14.3125 18.189 14.3391 18.1196 14.3873 18.0634C15.3531 16.9338 15.9855 16.1993 16.0286 16.1538C16.0754 16.1224 16.2837 16.069 16.4216 16.0339C16.5532 16.0002 16.6894 15.9654 16.7887 15.9293C16.9263 15.8792 17.3677 15.5532 18.3705 14.7929C18.8297 14.4447 19.3044 14.0847 19.4332 14.0076C19.7649 13.8084 21.182 13.0422 21.3053 12.9953L21.2526 12.8323L21.2117 12.6657C21.0757 12.699 19.4575 13.5931 19.2567 13.7136C19.1121 13.8003 18.6725 14.1336 18.1634 14.5197C17.6204 14.9314 16.7995 15.5536 16.6715 15.6071C16.5881 15.6374 16.4603 15.67 16.3367 15.7015C16.0451 15.7762 15.8761 15.8223 15.7944 15.9042C15.7269 15.9716 14.8503 16.9943 14.1268 17.8403C14.0284 17.9554 13.9719 18.1021 13.9675 18.2542C13.9665 18.2946 13.8578 22.2874 13.8368 22.7911C13.8152 23.3075 13.9593 26.1581 13.9653 26.2792L14.1861 26.268C13.9057 26.3543 13.6282 26.3874 13.3772 26.3573C13.1399 26.3288 12.9081 26.2847 12.6841 26.2281H12.7005C12.7044 24.9921 12.7281 21.7064 12.7907 21.349C12.8585 20.9611 12.8179 19.1243 12.7973 18.3525C12.7937 18.2194 12.751 18.0915 12.6734 17.9825C11.7549 16.6954 11.1748 16.0038 10.9494 15.9272C10.8749 15.9019 10.7989 15.8791 10.7192 15.8549C10.4633 15.7775 10.1735 15.69 9.75968 15.4671C9.53859 15.3481 8.82399 14.8624 8.06749 14.3484C6.5799 13.3373 5.66005 12.7196 5.4314 12.6654L5.35164 12.999C5.55223 13.0537 6.94992 14.0034 7.87473 14.6319C8.67202 15.1737 9.36038 15.6415 9.59738 15.7692C10.0414 16.0083 10.362 16.1053 10.6199 16.1831C10.6958 16.206 10.768 16.228 10.8362 16.2509C10.9647 16.3092 11.507 16.9383 12.3942 18.1814C12.4319 18.2345 12.4529 18.2968 12.4544 18.3616C12.4872 19.5859 12.5041 20.9979 12.4529 21.2898C12.3778 21.7179 12.3603 25.4777 12.358 26.1342C11.3386 25.7978 10.5614 25.1397 10.4673 24.1398C10.3436 22.8253 11.06 21.9589 11.3893 21.8835C11.7187 21.8079 12.026 21.0035 11.7721 20.5289C11.5185 20.0544 11.2868 18.691 10.891 18.5117C10.87 18.5021 10.8488 18.4926 10.8275 18.4834C10.8725 18.3267 10.8788 18.1484 10.8788 17.9758C10.8788 17.5043 9.67846 16.7112 9.33565 16.2611C8.99269 15.811 8.09246 15.7897 7.87805 16.0896C7.66379 16.3896 6.52784 16.7541 5.32758 16.0896C4.12724 15.4252 3.99869 13.8178 4.4702 12.2531C4.9417 10.6884 6.63502 10.0026 7.57802 10.0454C8.52118 10.0882 9.57138 11.3742 9.65714 11.7601C9.74285 12.1459 9.31413 12.8961 9.82857 13.2819Z"
      fill="white"
    />
<path
      d="M22.0461 19.4028C23.209 19.0555 22.9387 17.7608 22.8159 17.3383L21.7334 18.4369C21.8758 18.4575 21.9754 18.4899 22.001 18.5326C22.0452 18.606 22.059 18.9522 22.0461 19.4028Z"
      fill="#00A650"
    />
<path
      d="M23.1163 20.8475C23.6112 19.9814 23.7487 18.7951 23.7585 16.6456L23.4587 16.7962C23.5283 17.6436 23.4487 18.3091 23.2021 19.1038C23.0423 19.618 22.4425 19.9342 22.0103 20.1002C21.9559 20.8366 21.8498 21.6237 21.7018 21.962C21.4017 22.6479 22.602 21.7477 23.1163 20.8475Z"
      fill="#00A650"
    />
<path
      d="M25.2595 15.0176C25.2167 14.4174 24.9012 13.5943 24.6946 14.263C24.5721 14.6593 24.3874 15.398 24.2655 16.3907C24.1817 17.0736 24.1275 17.8755 24.1451 18.7732C24.1878 20.9761 23.7791 21.3957 22.4617 22.4932C21.1442 23.591 20.8014 23.8911 20.8014 23.8911C20.8014 23.8911 21.6169 20.6596 21.5306 19.8748C21.4853 19.4619 21.3698 19.132 21.1926 18.9865C21.0331 18.8556 20.8236 18.874 20.5684 19.1225C20.0297 19.6471 19.613 22.9909 19.1355 23.9339C18.6581 24.877 18.1822 25.8828 18.1822 25.8828C18.1822 25.8828 17.235 27.9742 18.1822 28.5261C19.1295 29.0779 19.3209 29.1208 21.3042 26.806C23.2876 24.4912 25.1309 23.0338 25.2595 21.019C25.3882 19.0042 25.3024 15.6178 25.2595 15.0176Z"
      fill="#00A650"
    />
<path
      d="M4.49787 19.4031C4.48499 18.9525 4.49874 18.6063 4.5429 18.5328C4.5685 18.4901 4.66828 18.4578 4.81058 18.4372L3.72805 17.3385C3.60526 17.761 3.33499 19.0558 4.49787 19.4031Z"
      fill="white"
    />
<path
      d="M4.84329 21.9627C4.69533 21.6244 4.58913 20.8374 4.53488 20.1009C4.10259 19.9349 3.50268 19.6187 3.34301 19.1045C3.09631 18.3099 3.01679 17.6443 3.0863 16.797L2.78662 16.2042C2.79644 18.3538 2.93385 19.9821 3.42878 20.8482C3.94312 21.7484 5.14341 22.6486 4.84329 21.9627Z"
      fill="white"
    />
<path
      d="M8.36246 28.5266C9.30976 27.9747 8.36246 25.8833 8.36246 25.8833C8.36246 25.8833 7.88665 24.8775 7.4092 23.9344C6.93169 22.9914 6.51497 19.6476 5.97639 19.123C5.72115 18.8744 5.51171 18.8561 5.35219 18.987C5.17495 19.1325 5.05948 19.4624 5.0141 19.8753C4.92776 20.6601 5.74329 23.8916 5.74329 23.8916C5.74329 23.8916 5.40049 23.5915 4.08306 22.4937C2.76561 21.3962 2.35695 20.9766 2.39974 18.7737C2.4173 17.876 2.363 17.074 2.27923 16.3911C2.15737 15.3985 1.97262 14.6598 1.85018 14.2635C1.64357 13.5948 1.32808 14.4179 1.28524 15.0181C1.24232 15.6183 1.15659 19.0047 1.28524 21.0195C1.41379 23.0342 3.25713 24.4917 5.24047 26.8065C7.22397 29.1213 7.41515 29.0784 8.36246 28.5266Z"
      fill="#00A650"
    />
<path
      d="M6.94197 7.28778C6.94197 7.28778 7.08482 7.25931 7.25629 7.0736C7.42778 6.88789 8.6995 4.68722 8.92815 4.21576C9.15671 3.74431 9.42819 3.82998 9.42819 3.82998L9.48541 4.02993C9.5425 4.70146 8.79951 5.71618 8.42802 6.07336C8.05647 6.43055 8.42802 6.70206 8.42802 6.70206C8.42802 6.70206 8.61374 6.60189 9.09948 5.9732C9.58537 5.34451 9.75691 4.21576 9.75691 4.21576L9.94263 3.98709H10.229C10.2419 4.01919 10.26 4.06065 10.2856 4.11573C10.4713 4.51575 9.99971 5.47315 9.74261 5.90189C9.48541 6.33051 9.74261 6.34487 9.74261 6.34487C10.6875 5.67309 10.6428 3.88705 10.5571 3.71558C10.4713 3.54411 10.0999 3.64415 9.92833 3.57283C9.75691 3.50127 9.92833 3.15833 9.92833 3.15833C9.92833 3.15833 10.6428 2.97262 10.6142 3.07253C10.5856 3.17256 10.7286 3.387 10.9977 3.51551C11.267 3.64415 11.7288 3.52987 11.7288 3.52987L11.7716 3.78702L11.9145 3.88705C11.9431 5.67322 12.5002 5.81609 13.0575 6.34487C13.6149 6.8734 14.3006 6.9878 14.3006 6.9878C14.1007 7.50209 14.3294 8.37382 14.3294 8.37382C14.3294 8.37382 14.6865 8.53105 14.9723 8.27378C15.2582 8.01664 15.1295 6.9878 15.1295 6.9306C15.1295 6.8734 14.9009 7.30215 14.9009 7.30215L14.7432 6.9306C14.5858 6.55918 14.4294 5.94473 14.4294 5.94473C14.4294 5.94473 14.2579 5.50175 14.6009 5.84469C14.9437 6.18764 14.9723 6.20187 15.0723 5.98756C15.1724 5.77325 14.9867 5.10173 14.9867 5.10173C14.9867 5.10173 14.9723 5.01593 15.0866 5.05876C15.201 5.10173 15.4581 5.31916 15.4581 5.31916C15.4581 5.31916 15.5153 4.98733 15.6153 5.0444C15.7154 5.10173 15.7296 5.216 15.8439 5.53022C15.9583 5.84469 16.1584 5.68746 16.1584 5.68746C16.1584 5.68746 16.1154 5.47315 16.1726 5.11596C16.2298 4.75878 16.4726 5.03016 16.4726 5.03016C16.544 5.77325 17.1728 6.43055 17.1728 6.43055C17.4586 5.95897 16.7441 4.53011 16.7441 4.53011C16.7441 4.53011 16.5726 4.45867 16.1868 4.45867C15.8011 4.45867 14.9867 4.60154 14.9867 4.60154C14.9867 4.60154 14.758 4.57295 14.3864 4.11573C14.0149 3.65851 14.1864 3.44407 14.1864 3.44407C14.1864 3.44407 14.3436 3.42984 14.5007 3.4728C14.6579 3.51551 14.8866 3.97286 15.201 4.1728C15.5153 4.373 15.9296 4.07276 16.2156 3.75854C16.5013 3.44407 16.5013 2.71534 16.5013 2.71534C16.4841 2.43647 16.4667 2.15747 16.4496 1.87847C16.4384 1.69638 16.5792 1.53864 16.7617 1.53502C16.9442 1.53152 17.1501 1.54239 17.3728 1.57948C18.0637 1.6945 18.5612 2.00273 18.8304 2.20105C18.7182 2.02333 17.7943 1.11627 16.8155 0.729237C16.4565 0.587238 16.1705 0.816283 15.995 1.03109C15.8684 1.18596 15.8199 1.39102 15.8591 1.58722C16.0177 2.3794 15.956 2.99722 15.8011 3.22976C15.6296 3.48704 14.9723 3.40124 14.9723 3.40124C14.5437 3.08689 14.3722 1.68664 14.3722 1.14362C14.3722 0.600725 14.0479 0.173104 13.3148 0.200581C12.5818 0.228056 12.3433 0.772198 12.3433 0.772198C12.3433 0.772198 12.629 0.886471 12.9718 1.34369C13.3148 1.80091 13.1147 3.22976 13.1147 3.22976L12.9432 3.17256C12.9432 3.17256 12.8289 3.40124 12.3433 3.40124C11.8573 3.40124 11.2286 2.88682 11.2286 2.11538C11.2286 1.34369 11.0399 0.778193 11.0001 0.772198C10.1712 0.643437 9.49966 1.51516 8.98523 1.6724C8.47079 1.82951 8.41372 2.11538 8.41372 2.11538C9.07099 2.27237 9.5425 1.82951 10.0569 1.48656C10.5713 1.14362 10.6284 1.35793 10.6284 1.35793C10.7142 1.95814 10.4857 2.31533 10.4857 2.31533C10.0712 2.24389 10.1856 1.95814 10.1856 1.95814C10.1856 1.95814 9.82833 2.01522 9.37097 2.41536C8.91376 2.81538 8.24224 2.84411 8.24224 2.84411C8.25648 3.28696 8.74237 3.15833 8.74237 3.15833L8.59949 3.44407C8.3137 3.387 8.21369 3.60131 8.21369 3.60131C8.328 3.88706 8.74237 3.78702 8.74237 3.78702L8.6995 3.95862C8.22799 4.24424 7.22776 6.24471 6.94197 6.73065C6.65615 7.21635 6.94197 7.28778 6.94197 7.28778Z"
      fill="#00A650"
    />
<path
      d="M11.3146 5.43762C11.4362 5.75909 11.6004 5.68765 11.6004 5.68765C11.6004 5.68765 11.7434 5.01612 11.6004 4.5875C11.4576 4.15876 11.4147 4.10169 11.4147 4.10169C11.4147 4.10169 11.1147 3.97305 10.9861 4.24443C10.8574 4.51594 10.5287 5.55914 10.5574 5.78769L10.5859 6.01636C10.5859 6.01636 11.0479 5.88585 11.1098 5.04372C11.1718 4.2016 11.3146 4.74474 11.3146 4.74474C11.3146 4.74474 11.2176 5.18048 11.3146 5.43762Z"
      fill="#00A650"
    />
<path
      d="M17.3574 3.80139C17.5861 3.65852 17.7361 3.9013 17.7361 3.9013C17.8147 3.74432 17.6146 3.51552 17.6146 3.51552C17.6146 3.51552 17.7718 3.34417 18.0291 3.57284C18.2862 3.80139 18.4878 3.78703 18.4878 3.78703C18.3464 3.65852 18.2148 3.04406 18.2148 3.04406C18.3672 3.00123 18.5197 2.95839 18.672 2.91543C18.3367 2.31746 17.9874 2.11439 17.7222 2.04308C17.3849 1.95253 16.8002 1.97239 16.8002 1.97239C16.7885 2.09191 16.7782 2.26788 16.7929 2.47969C16.8114 2.74208 16.8573 2.90369 16.8859 3.0583C16.9265 3.27648 16.9534 3.59133 16.8859 4.00146C16.8859 4.00146 17.1289 3.94427 17.3574 3.80139Z"
      fill="#00A650"
    />
<path
      d="M18.3723 6.83057C18.3723 6.83057 18.6294 6.73066 18.2722 6.1162C17.915 5.50175 17.7561 5.14457 17.6784 4.68722C17.6007 4.23 17.2007 4.40147 17.2007 4.40147C17.2007 4.40147 17.3292 6.15891 18.3723 6.83057Z"
      fill="#00A650"
    />
<path
      d="M18.2733 4.43037C18.2733 4.43037 18.1876 5.81639 19.0592 6.51652C19.931 7.21665 20.0024 7.28809 20.0024 7.28809C20.0024 7.28809 19.9737 6.9309 19.4594 6.0879C18.945 5.24477 18.6592 4.61608 18.2733 4.43037Z"
      fill="#00A650"
    />
<path
      d="M13.4438 8.30239C13.6152 8.27392 13.6152 7.23085 13.6152 7.23085C13.6152 7.23085 13.2865 7.27368 13.0723 7.01654C12.8579 6.75927 12.5864 6.74503 12.5293 6.93074C12.4721 7.11645 11.9006 8.15965 12.715 8.6311C12.715 8.6311 13.0008 8.43116 13.258 8.6311C13.258 8.6311 13.2723 8.33112 13.4438 8.30239Z"
      fill="#00A650"
    />
<path
      d="M15.8284 7.78796C15.7141 8.05947 15.9428 8.34521 15.9428 8.34521H16.2143C16.2143 8.34521 16.2143 8.13078 16.4713 8.17374C16.7286 8.21658 16.9572 8.11655 16.9572 8.11655C16.9572 8.11655 16.8857 8.08807 16.6839 7.8594C16.482 7.63085 16.1803 7.5418 16.2143 7.58789C16.3713 7.80232 16.257 7.96655 16.257 7.96655L15.8284 7.78796Z"
      fill="#00A650"
    />
<path
      d="M14.8707 10.3028C14.8837 10.2984 14.8756 10.2883 14.8535 10.2767C14.8555 10.2984 14.8594 10.3065 14.8707 10.3028Z"
      fill="#00A650"
    />
<path
      d="M14.4298 9.01688C14.4298 9.01688 14.3298 8.94544 14.3154 9.43126C14.301 9.91708 14.144 10.1315 14.144 10.1315C14.144 10.1315 14.301 10.2173 14.5298 10.2173C14.6853 10.2173 14.8058 10.25 14.8548 10.2756C14.8495 10.2164 14.8594 10.0507 14.787 9.68853C14.6869 9.18835 14.4298 9.01688 14.4298 9.01688Z"
      fill="#00A650"
    />
<path
      d="M13.4437 9.84555C13.4437 9.84555 13.7438 9.87428 13.8581 9.65859C13.9725 9.44278 13.8581 9.01316 13.8581 9.01316C13.8581 9.01316 13.7294 9.10259 13.4437 9.18826C13.158 9.27406 13.3151 9.84692 13.3151 9.84692L13.4437 9.84555Z"
      fill="#00A650"
    />
<path
      d="M12.5721 9.6584C12.4291 10.0026 12.2812 10.1169 12.2812 10.1169C12.2812 10.1169 12.5721 10.3027 12.8293 10.1169C13.0865 9.93103 12.9482 9.75806 12.9482 9.75806V9.31683C12.9151 9.31683 12.715 9.31408 12.5721 9.6584Z"
      fill="#00A650"
    />
<path
      d="M4.51164 30.4503C4.51114 30.4508 5.70262 29.6603 6.69523 29.3211C6.3717 28.9018 5.7397 28.6155 5.01182 28.6155C3.95612 28.6155 3.09717 29.2161 3.09717 29.9545C3.09717 30.2974 3.64366 30.9007 4.51164 30.4503Z"
      fill="#00A650"
    />
<path
      d="M22.0806 30.9006C20.5729 30.0063 18.1679 28.9417 14.6325 28.7612L14.6273 28.7904C14.2444 28.763 13.8558 28.743 13.4579 28.7361C13.4161 28.7363 13.3757 28.7354 13.3337 28.7358C13.2916 28.7354 13.2512 28.7363 13.2094 28.7361C12.8115 28.743 12.423 28.763 12.0401 28.7904L12.0349 28.7612C8.49949 28.9417 6.0945 30.0063 4.58666 30.9006C3.95431 31.2755 3.64257 31.0067 3.64356 31.0076L5.03904 32.7076C5.38331 33.0504 5.92278 33.0955 6.32062 32.8165C7.94402 31.678 10.3996 30.9504 13.1447 30.9504C13.2083 30.9504 13.2703 30.954 13.3337 30.9549C13.3969 30.954 13.459 30.9504 13.5226 30.9504C16.2677 30.9504 18.7232 31.678 20.3467 32.8165C20.7446 33.0955 21.284 33.0504 21.6283 32.7076L23.0238 31.0076C23.0248 31.0067 22.7131 31.2755 22.0806 30.9006Z"
      fill="#00A650"
    />
<path
      d="M21.6565 28.6155C20.9288 28.6155 20.2967 28.9018 19.9731 29.3211C20.9659 29.6603 22.1573 30.4508 22.1567 30.4503C23.0248 30.9007 23.5713 30.2974 23.5713 29.9545C23.5713 29.2161 22.7123 28.6155 21.6565 28.6155Z"
      fill="#00A650"
    />
<path
      d="M13.5899 0.66486C13.5899 0.731926 13.4899 0.786377 13.3665 0.786377C13.2431 0.786377 13.1431 0.731926 13.1431 0.66486C13.1431 0.597795 13.2431 0.543468 13.3665 0.543468C13.4899 0.543468 13.5899 0.597795 13.5899 0.66486Z"
      fill="black"
    />
<path
      d="M14.1109 26.4878L12.5676 26.2793L12.6331 18.276C12.0576 17.3329 11.0199 15.8775 9.91428 15.661C8.92833 15.4682 6.01359 13.1418 5.65088 12.8739L6.47461 11.7582C7.79838 12.7357 8.55977 13.6678 10.7811 14.5355C11.4706 14.8048 12.581 15.8562 13.2928 16.5213C14.3509 15.661 14.6597 15.1231 15.3049 14.9966C15.7733 14.8423 18.5888 13.1903 20.4655 11.8888L21.2422 12.8874C19.2605 13.6817 16.7772 15.6493 16.0358 16.0728C15.7498 16.1988 14.9039 17.2906 14.1411 18.1697L14.1109 26.4878Z"
      fill="#00ADEF"
    />
<path
      d="M21.7883 18.7736C21.7883 18.7736 22.2563 18.7986 22.5153 18.0014C22.7742 17.2042 21.5454 18.3877 21.5454 18.3877L21.7883 18.7736Z"
      fill="#231F20"
    />
<path
      d="M25.261 21.0195C25.1325 23.0342 23.2891 24.4917 21.3058 26.8065C19.3224 29.1213 19.1311 29.0784 18.1838 28.5266C17.2365 27.9747 18.1838 25.8833 18.1838 25.8833C18.1838 25.8833 18.6596 24.8774 19.1371 23.9344C19.6145 22.9914 20.0313 19.6476 20.5699 19.1229C20.8252 18.8744 21.0346 18.856 21.1941 18.9869C21.3713 19.1324 21.4869 19.4624 21.5322 19.8753C21.6185 20.6601 20.803 23.8915 20.803 23.8915C20.803 23.8915 21.1458 23.5915 22.4632 22.4937C23.7807 21.3962 24.1893 20.9765 24.1466 18.7736C24.129 17.8759 24.1832 17.074 24.267 16.3911C24.3889 15.3985 24.5736 14.6598 24.6961 14.2635C24.9027 13.5947 25.2183 14.4179 25.261 15.0181C25.304 15.6183 25.3898 19.0047 25.261 21.0195ZM23.5723 29.9542C23.5723 30.2971 23.0257 30.9004 22.1576 30.45C22.1583 30.4505 20.9668 29.66 19.9741 29.3208C20.2977 28.9015 20.9297 28.6152 21.6575 28.6152C22.7133 28.6152 23.5723 29.2158 23.5723 29.9542ZM21.6302 32.7074C21.2859 33.0502 20.7465 33.0953 20.3486 32.8163C18.7252 31.6778 16.2696 30.9502 13.5246 30.9502C13.461 30.9502 13.3988 30.9538 13.3356 30.9547C13.2723 30.9538 13.2102 30.9502 13.1466 30.9502C10.4016 30.9502 7.94596 31.6778 6.32256 32.8163C5.92472 33.0953 5.38525 33.0502 5.04098 32.7074L3.6455 31.0074C3.64451 31.0065 3.95625 31.2753 4.5886 30.9004C6.09644 30.0061 8.50143 28.9415 12.0369 28.761L12.042 28.7902C12.4249 28.7628 12.8134 28.7428 13.2113 28.7359C13.2532 28.7361 13.2935 28.7351 13.3356 28.7356C13.3777 28.7351 13.418 28.7361 13.4599 28.7359C13.8578 28.7428 14.2463 28.7628 14.6292 28.7902L14.6344 28.761C18.1698 28.9415 20.5748 30.0061 22.0826 30.9004C22.715 31.2753 23.0267 31.0065 23.0257 31.0074L21.6302 32.7074ZM3.09901 29.9542C3.09901 29.2158 3.95796 28.6152 5.01366 28.6152C5.74153 28.6152 6.37354 28.9015 6.69707 29.3208C5.70446 29.66 4.51298 30.4505 4.51348 30.45C3.6455 30.9004 3.09901 30.2971 3.09901 29.9542ZM1.28626 21.0195C1.15761 19.0047 1.24333 15.6183 1.28626 15.0181C1.32909 14.4179 1.64459 13.5947 1.85119 14.2635C1.97363 14.6598 2.15838 15.3985 2.28025 16.3911C2.36401 17.074 2.41831 17.8759 2.40075 18.7736C2.35797 20.9765 2.76663 21.3962 4.08407 22.4937C5.4015 23.5915 5.74431 23.8915 5.74431 23.8915C5.74431 23.8915 4.92877 20.6601 5.01512 19.8753C5.06049 19.4624 5.17596 19.1324 5.35321 18.9869C5.51273 18.856 5.72216 18.8744 5.9774 19.1229C6.51598 19.6476 6.9327 22.9914 7.41021 23.9344C7.88767 24.8774 8.36347 25.8833 8.36347 25.8833C8.36347 25.8833 9.31078 27.9747 8.36347 28.5266C7.41616 29.0784 7.22498 29.1213 5.24148 26.8065C3.25814 24.4917 1.4148 23.0342 1.28626 21.0195ZM4.49908 19.4034C3.48939 19.1018 3.56021 18.0865 3.67681 17.5476C3.75355 17.6279 3.83209 17.7066 3.91347 17.783C4.21554 18.0665 4.5203 18.2763 4.81989 18.4365L4.81179 18.4375C4.66949 18.4582 4.56971 18.4905 4.54411 18.5332C4.49995 18.6066 4.4862 18.9528 4.49908 19.4034ZM3.34385 19.1043C3.50352 19.6185 4.10343 19.9347 4.53572 20.1007C4.58997 20.8372 4.69616 21.6242 4.84413 21.9625C5.14425 22.6484 3.94396 21.7482 3.42961 20.848C2.93469 19.9819 2.79728 18.7956 2.78746 16.6461C2.78712 16.5612 2.78664 16.4778 2.78664 16.3897L2.78615 16.3569C2.87835 16.5169 2.97885 16.6725 3.08544 16.8245C3.02007 17.6585 3.09983 18.3187 3.34385 19.1043ZM2.99178 10.8171C3.76345 9.80984 4.80959 8.39522 6.81562 8.20226C8.82165 8.00944 9.87189 8.83345 10.7721 9.8468C11.6723 10.86 13.0869 12.146 13.1513 12.5533C13.1746 12.7018 13.2246 12.8872 13.2471 13.0609C13.2361 13.157 13.2314 13.2629 13.2408 13.3662C13.2018 13.5192 13.0879 13.6208 12.8234 13.6035C12.1653 13.5606 10.5363 13.2392 10.2577 13.0892C9.97907 12.9391 9.85042 12.3603 9.87189 11.9745C9.89336 11.5888 9.63611 10.7393 8.73594 10.1995C7.83571 9.65972 7.12321 9.49624 6.48535 9.8468C6.38734 9.90075 4.57792 10.5599 4.17066 12.339C3.76345 14.1179 3.80379 15.5071 5.32808 16.4755C6.85221 17.4441 8.60724 16.2183 8.60724 16.2183L9.03597 16.4541C9.03597 16.4541 10.4934 17.633 10.4507 17.9545C10.4287 18.1191 10.4399 18.2555 10.373 18.3581C10.2239 18.354 10.0809 18.4022 9.95507 18.544C9.92839 18.5478 9.90165 18.5516 9.87189 18.5546C9.34731 18.6089 7.69449 18.8451 6.63063 18.7503C6.46232 18.5462 5.94131 18.443 5.4598 18.4183C4.92185 18.1801 4.29385 17.8094 3.74706 17.2799C3.76233 17.2319 3.77257 17.2043 3.77257 17.2043C3.77257 17.2043 3.26204 15.984 3.12081 16.5334C2.98861 16.336 2.87065 16.1236 2.77039 15.8956C2.7182 15.0824 2.54003 14.4309 2.30927 13.9845C2.20887 12.7224 2.47002 11.4982 2.99178 10.8171ZM6.57258 8.03291C6.94715 7.91789 7.12784 7.78925 7.17785 7.75216C7.3567 7.61928 7.509 7.45031 7.62414 7.25461L7.6857 7.15007C9.88619 6.98384 10.2291 6.48379 10.2291 6.48379C10.2291 6.48379 10.4864 6.51626 10.8864 6.25087C11.2865 5.98548 12.0295 5.82325 12.0295 5.82325C12.1153 6.78789 12.8012 6.34479 12.3153 6.73806C11.8296 7.13159 11.9438 8.77188 11.9438 8.77188L12.1438 8.71481L12.1725 9.22948L12.4295 9.25021C12.4295 9.67758 11.535 10.0359 11.3505 10.1054C10.7259 9.48263 10.0714 8.87004 9.59324 8.52373C8.35015 7.62353 6.57258 8.03291 6.57258 8.03291C6.57258 8.03291 9.18598 7.85932 6.47209 8.06214H6.47199C6.50769 8.0524 6.54145 8.04265 6.57258 8.03291ZM11.1102 5.04344C11.0483 5.88557 10.5863 6.01608 10.5863 6.01608L10.5578 5.78741C10.5291 5.55886 10.8578 4.51566 10.9864 4.24415C11.1151 3.97277 11.4151 4.10141 11.4151 4.10141C11.4151 4.10141 11.458 4.15848 11.6008 4.58722C11.7438 5.01584 11.6008 5.68737 11.6008 5.68737C11.6008 5.68737 11.4365 5.75881 11.315 5.43735C11.218 5.1802 11.315 4.74446 11.315 4.74446C11.315 4.74446 11.1721 4.20132 11.1102 5.04344ZM6.94271 6.73057C7.22849 6.24463 8.22873 4.24415 8.70023 3.95853L8.74311 3.78693C8.74311 3.78693 8.32874 3.88697 8.21443 3.60122C8.21443 3.60122 8.31444 3.38692 8.60022 3.44399L8.74311 3.15825C8.74311 3.15825 8.25721 3.28688 8.24298 2.84402C8.24298 2.84402 8.91449 2.8153 9.3717 2.41528C9.82907 2.01513 10.1863 1.95806 10.1863 1.95806C10.1863 1.95806 10.0719 2.24381 10.4864 2.31524C10.4864 2.31524 10.7149 1.95806 10.6291 1.35784C10.6291 1.35784 10.5721 1.14353 10.0576 1.48648C9.54323 1.82942 9.07173 2.27228 8.41445 2.1153C8.41445 2.1153 8.47152 1.82943 8.98596 1.67232C9.5004 1.51508 10.1719 0.643353 11.0008 0.772114C11.0406 0.778111 11.2293 1.34361 11.2293 2.1153C11.2293 2.88674 11.858 3.40115 12.344 3.40115C12.8297 3.40115 12.9439 3.17248 12.9439 3.17248L13.1154 3.22968C13.1154 3.22968 13.3155 1.80083 12.9725 1.34361C12.6297 0.886387 12.344 0.772114 12.344 0.772114C12.344 0.772114 12.5825 0.227974 13.3155 0.200497C14.0486 0.173019 14.3729 0.600639 14.3729 1.14354C14.3729 1.68655 14.5444 3.08681 14.973 3.40115C14.973 3.40115 15.6303 3.48695 15.8018 3.22968C15.9568 2.99714 16.0185 2.37931 15.8599 1.58714C15.8206 1.39094 15.8691 1.18587 15.9957 1.03101C16.1712 0.8162 16.4572 0.587154 16.8163 0.729153C17.795 1.11618 18.7189 2.02325 18.8311 2.20097C18.562 2.00265 18.0644 1.69442 17.3735 1.5794C17.1508 1.5423 16.9449 1.53144 16.7624 1.53494C16.58 1.53856 16.4391 1.69629 16.4503 1.87838C16.4674 2.15738 16.4848 2.43638 16.502 2.71526C16.502 2.71526 16.502 3.44399 16.2163 3.75846C15.9303 4.07268 15.516 4.37292 15.2017 4.17272C14.8873 3.97277 14.6587 3.51543 14.5014 3.47272C14.3443 3.42975 14.1871 3.44399 14.1871 3.44399C14.1871 3.44399 14.0156 3.65842 14.3872 4.11564C14.7587 4.57286 14.9874 4.60146 14.9874 4.60146C14.9874 4.60146 15.8018 4.45859 16.1876 4.45859C16.5733 4.45859 16.7448 4.53002 16.7448 4.53002C16.7448 4.53002 17.4593 5.95888 17.1736 6.43046C17.1736 6.43046 16.5448 5.77317 16.4733 5.03008C16.4733 5.03008 16.2305 4.7587 16.1733 5.11588C16.1161 5.47306 16.1591 5.68737 16.1591 5.68737C16.1591 5.68737 15.959 5.84461 15.8446 5.53014C15.7303 5.21592 15.7161 5.10164 15.6161 5.04432C15.516 4.98725 15.4588 5.31907 15.4588 5.31907C15.4588 5.31907 15.2017 5.10164 15.0873 5.05868C14.973 5.01584 14.9874 5.10164 14.9874 5.10164C14.9874 5.10164 15.1731 5.77317 15.0731 5.98748C14.973 6.20179 14.9444 6.18755 14.6016 5.84461C14.2587 5.50166 14.4301 5.94464 14.4301 5.94464C14.4301 5.94464 14.5865 6.5591 14.744 6.93052L14.9016 7.30206C14.9016 7.30206 15.1303 6.87332 15.1303 6.93052C15.1303 6.98771 15.2589 8.01655 14.973 8.2737C14.6873 8.53097 14.3301 8.37374 14.3301 8.37374C14.3301 8.37374 14.1014 7.50201 14.3014 6.98772C14.3014 6.98772 13.6156 6.87332 13.0582 6.34479C12.501 5.81601 11.9438 5.67313 11.9152 3.88697L11.7724 3.78693L11.7295 3.52979C11.7295 3.52979 11.2677 3.64406 10.9984 3.51542C10.7293 3.38692 10.5863 3.17248 10.6149 3.07244C10.6435 2.97253 9.92906 3.15825 9.92906 3.15825C9.92906 3.15825 9.75764 3.50119 9.92906 3.57275C10.1006 3.64406 10.472 3.54403 10.5578 3.7155C10.6435 3.88697 10.6882 5.67301 9.74334 6.34479C9.74334 6.34479 9.48615 6.33043 9.74334 5.90181C10.0004 5.47306 10.472 4.51566 10.2863 4.11564C10.2607 4.06057 10.2426 4.0191 10.2297 3.98701H9.94337L9.75764 4.21568C9.75764 4.21568 9.58611 5.34443 9.10021 5.97312C8.61447 6.60181 8.42875 6.70197 8.42875 6.70197C8.42875 6.70197 8.0572 6.43046 8.42875 6.07328C8.80024 5.7161 9.54323 4.70137 9.48615 4.02984L9.42892 3.8299C9.42892 3.8299 9.15744 3.74422 8.92888 4.21568C8.70023 4.68714 7.42851 6.88781 7.25703 7.07352C7.08555 7.25923 6.94271 7.2877 6.94271 7.2877C6.94271 7.2877 6.65688 7.21626 6.94271 6.73057ZM19.4598 6.08751C19.9741 6.93052 20.0028 7.2877 20.0028 7.2877C20.0028 7.2877 19.9314 7.21626 19.0596 6.51613C18.188 5.81601 18.2737 4.42999 18.2737 4.42999C18.6596 4.6157 18.9454 5.24439 19.4598 6.08751ZM17.6799 4.68714C17.7575 5.14448 17.9165 5.50166 18.2737 6.11612C18.6309 6.73057 18.3738 6.83048 18.3738 6.83048C17.3307 6.15883 17.2022 4.40139 17.2022 4.40139C17.2022 4.40139 17.6022 4.22992 17.6799 4.68714ZM16.8877 3.05821C16.8591 2.90359 16.8133 2.74199 16.7948 2.4796C16.78 2.26778 16.7903 2.09181 16.802 1.9723C16.802 1.9723 17.3868 1.95244 17.7241 2.04299C17.9892 2.1143 18.3385 2.31736 18.6739 2.91533C18.5215 2.9583 18.369 3.00113 18.2166 3.04397C18.2166 3.04397 18.3483 3.65842 18.4896 3.78693C18.4896 3.78693 18.2881 3.8013 18.0309 3.57275C17.7737 3.34408 17.6164 3.51542 17.6164 3.51542C17.6164 3.51542 17.8165 3.74422 17.7379 3.90121C17.7379 3.90121 17.5879 3.65842 17.3593 3.8013C17.1307 3.94417 16.8877 4.00137 16.8877 4.00137C16.9553 3.59124 16.9283 3.27639 16.8877 3.05821ZM15.9733 8.69558C16.4305 8.73154 16.659 8.34526 16.659 8.34526C17.2022 8.34526 17.5165 8.11072 17.5165 8.11072C17.5165 8.11072 15.7161 6.91628 15.5446 6.48379C15.3732 6.05142 16.1161 6.19817 16.1161 6.19817L16.2018 6.42722L16.7162 6.61929L16.8305 6.77066L17.688 6.82087L18.6309 7.94387L18.6448 7.94337L18.6574 7.96548C18.1445 8.0193 17.5745 8.17042 17.0863 8.52373C16.6119 8.86717 15.9641 9.47289 15.3441 10.0905C15.3417 10.0883 15.1439 9.91337 15.0301 9.34163C14.9158 8.76626 15.0873 8.91676 15.4304 8.89989C15.7733 8.88304 15.9733 8.69558 15.9733 8.69558ZM16.2163 7.58781C16.1823 7.54173 16.4841 7.63077 16.6859 7.85932C16.8877 8.08799 16.9593 8.11647 16.9593 8.11647C16.9593 8.11647 16.7306 8.2165 16.4733 8.17366C16.2163 8.1307 16.2163 8.34514 16.2163 8.34514H15.9448C15.9448 8.34514 15.7161 8.05939 15.8304 7.78788L16.259 7.96647C16.259 7.96647 16.3733 7.80224 16.2163 7.58781ZM16.8139 18.9632C17.2953 18.9684 17.8924 18.9898 18.4212 18.9904C18.0612 19.4603 17.7292 19.9488 17.4233 20.4555C17.1833 19.8445 16.9553 19.2973 16.8139 18.9632ZM14.1444 10.1313C14.1444 10.1313 14.3014 9.91687 14.3157 9.43105C14.3301 8.94523 14.4301 9.01666 14.4301 9.01666C14.4301 9.01666 14.6873 9.18814 14.7873 9.68832C14.8597 10.0505 14.8499 10.2162 14.8551 10.2754C14.8062 10.2498 14.6857 10.2171 14.5302 10.2171C14.3014 10.2171 14.1444 10.1313 14.1444 10.1313ZM14.8054 10.6362C14.0296 11.4348 13.4072 12.1245 13.4072 12.1245L13.3397 12.55L13.2724 12.1245C13.2724 12.1245 12.5662 11.3419 11.7204 10.4787L11.8527 10.6142L14.8054 10.6362ZM12.5725 9.65847C12.7154 9.31415 12.9155 9.3169 12.9486 9.3169V9.75813C12.9486 9.75813 13.0869 9.9311 12.8297 10.1169C12.5725 10.3028 12.2817 10.1169 12.2817 10.1169C12.2817 10.1169 12.4295 10.0027 12.5725 9.65847ZM13.8585 9.01304C13.8585 9.01304 13.9729 9.44266 13.8585 9.65847C13.7442 9.87416 13.4441 9.84543 13.4441 9.84543L13.3155 9.8468C13.3155 9.8468 13.1584 9.27394 13.4441 9.18814C13.7299 9.10246 13.8585 9.01304 13.8585 9.01304ZM13.4441 8.30218C13.2727 8.3309 13.2584 8.63088 13.2584 8.63088C13.0011 8.43094 12.7154 8.63088 12.7154 8.63088C11.901 8.15943 12.4725 7.11623 12.5297 6.93052C12.5868 6.74481 12.8583 6.75904 13.0727 7.01632C13.2869 7.27346 13.6156 7.23063 13.6156 7.23063C13.6156 7.23063 13.6156 8.2737 13.4441 8.30218ZM9.82907 13.282C10.3434 13.6678 12.2724 13.8821 12.9857 13.8606C13.1593 13.8554 13.2702 13.7849 13.3397 13.6821C13.4095 13.7849 13.5203 13.8554 13.6938 13.8606C14.4071 13.8821 16.3361 13.6678 16.8506 13.282C17.365 12.8962 16.9363 12.146 17.0221 11.7602C17.1077 11.3743 18.1579 10.0883 19.1011 10.0455C20.0441 10.0027 21.7374 10.6886 22.209 12.2532C22.6804 13.8179 22.5518 15.4253 21.3516 16.0898C20.1513 16.7542 19.0154 16.3897 18.801 16.0898C18.5867 15.7898 17.6865 15.8111 17.3435 16.2612C17.0006 16.7113 15.8003 17.5044 15.8003 17.976C15.8003 17.9999 15.8005 18.0242 15.8008 18.0485C15.5526 17.9309 15.2534 17.882 15.1065 18.2135C14.8308 18.8363 14.3132 20.6244 14.4512 21.2261C14.589 21.8278 15.4725 21.6439 15.6663 21.9565C16.9629 24.048 15.6439 25.7437 14.3067 26.2284C14.2905 25.9044 14.1604 23.2776 14.1799 22.8055C14.201 22.2992 14.3097 18.3042 14.311 18.2638C14.313 18.1891 14.3396 18.1197 14.3878 18.0635C15.3536 16.9339 15.986 16.1994 16.0291 16.1539C16.0759 16.1225 16.2842 16.0691 16.4221 16.0341C16.5537 16.0003 16.6899 15.9655 16.7892 15.9294C16.9268 15.8793 17.3681 15.5534 18.371 14.793C18.8302 14.4448 19.3049 14.0848 19.4337 14.0077C19.7654 13.8085 21.1825 13.0423 21.3058 12.9954L21.2531 12.8324L21.2122 12.6658C21.0762 12.6991 19.458 13.5932 19.2572 13.7137C19.1126 13.8004 18.673 14.1337 18.1639 14.5198C17.6209 14.9315 16.8 15.5537 16.672 15.6072C16.5886 15.6375 16.4608 15.6701 16.3372 15.7016C16.0456 15.7763 15.8766 15.8224 15.7949 15.9043C15.7274 15.9717 14.8508 16.9945 14.1273 17.8405C14.0289 17.9555 13.9724 18.1022 13.968 18.2543C13.967 18.2947 13.8583 22.2875 13.8373 22.7912C13.8157 23.3076 13.9598 26.1582 13.9658 26.2793L14.1866 26.2681C13.9062 26.3544 13.6287 26.3875 13.3777 26.3574C13.1404 26.3289 12.9086 26.2848 12.6846 26.2282H12.701C12.7049 24.9922 12.7286 21.7065 12.7912 21.3491C12.859 20.9612 12.8184 19.1244 12.7978 18.3526C12.7942 18.2195 12.7515 18.0916 12.6739 17.9826C11.7554 16.6955 11.1753 16.004 10.9498 15.9273C10.8754 15.902 10.7994 15.8792 10.7197 15.855C10.4638 15.7777 10.174 15.6901 9.76018 15.4672C9.53909 15.3482 8.82448 14.8625 8.06798 14.3486C6.58039 13.3375 5.66054 12.7197 5.4319 12.6655L5.35213 12.9991C5.55273 13.0538 6.95041 14.0035 7.87523 14.6321C8.67252 15.1738 9.36087 15.6417 9.59787 15.7693C10.0419 16.0085 10.3625 16.1054 10.6204 16.1832C10.6963 16.2062 10.7685 16.2281 10.8367 16.251C10.9652 16.3093 11.5075 16.9384 12.3947 18.1815C12.4324 18.2346 12.4534 18.2969 12.4549 18.3617C12.4877 19.586 12.5046 20.998 12.4534 21.2899C12.3783 21.718 12.3608 25.4778 12.3585 26.1343C11.3391 25.7979 10.5619 25.1399 10.4678 24.1399C10.3441 22.8254 11.0605 21.959 11.3898 21.8836C11.7192 21.808 12.0265 21.0036 11.7726 20.5291C11.519 20.0545 11.2873 18.6911 10.8915 18.5119C10.8705 18.5022 10.8493 18.4927 10.828 18.4835C10.873 18.3268 10.8793 18.1486 10.8793 17.976C10.8793 17.5044 9.67895 16.7113 9.33614 16.2612C8.99318 15.8111 8.09296 15.7898 7.87855 16.0898C7.66429 16.3897 6.52834 16.7542 5.32808 16.0898C4.12773 15.4253 3.99918 13.8179 4.47069 12.2532C4.9422 10.6886 6.63552 10.0027 7.57852 10.0455C8.52168 10.0883 9.57187 11.3743 9.65763 11.7602C9.74334 12.146 9.31462 12.8962 9.82907 13.282ZM17.6249 25.8237C16.7378 27.5248 15.1726 27.9124 14.0482 28.2118C12.924 28.5112 11.0084 27.8577 9.79252 26.5752C8.57652 25.2929 8.48899 23.4002 8.59193 22.4701C8.63846 22.05 8.88229 21.4459 9.16095 20.8611C9.27598 20.8228 9.35867 20.7174 9.30257 20.5716C9.60187 19.9726 9.91009 19.4313 10.0418 19.1829C10.0934 19.0855 10.1405 19.0119 10.1849 18.9566C10.3531 18.9433 10.4804 18.9014 10.5771 18.8391C10.6314 18.8569 10.6893 18.8798 10.7545 18.8991C11.0399 18.9834 11.5024 20.7211 11.5024 20.7211L11.5453 21.19C11.5453 21.19 9.88223 22.2764 10.1441 23.9931C10.4058 25.7097 11.5378 26.4004 13.1973 26.5902C16.0233 26.9136 16.6078 24.2445 16.4803 23.2428C16.3525 22.2413 15.8953 21.8132 15.5639 21.6854C15.2324 21.5576 14.7932 21.2238 14.768 20.9202C14.7429 20.6166 15.0617 19.0535 15.2638 18.455C15.3809 18.1075 15.5918 18.1297 15.8104 18.2503C15.8427 18.61 15.9813 18.9297 16.5346 18.9583C16.8546 19.587 17.2771 20.8024 17.6749 21.6983C18.0845 22.6206 18.3616 23.5808 18.0433 24.7662C17.8854 25.1245 17.7554 25.4606 17.6491 25.7737C17.6407 25.7905 17.6337 25.8067 17.6249 25.8237ZM17.2624 28.6382C16.4808 28.5034 15.6618 28.4118 14.8129 28.3651C15.8194 28.1131 16.7938 27.5454 17.4256 26.5252C17.1626 27.5617 17.1947 28.3269 17.2624 28.6382ZM8.25785 18.9902C8.73658 18.9897 9.27063 18.9723 9.72515 18.9651C9.56235 19.3555 9.34623 19.8382 9.15759 20.2893C9.02254 20.0775 8.85507 19.9105 8.68398 19.6973C8.50592 19.4754 8.43738 19.203 8.25785 18.9902ZM7.77659 19.2366C8.00465 19.4188 8.06709 19.7103 8.22893 19.9436C8.41796 20.216 8.67828 20.3838 8.8057 20.7058C8.83311 20.775 8.88043 20.8206 8.93522 20.8477C8.88961 20.9699 8.8479 21.0871 8.81683 21.1894C8.63057 21.8016 7.94182 23.0176 8.53553 24.7472C9.12915 26.4769 10.4665 27.8471 12.0807 28.3314C12.1027 28.3379 12.1257 28.3438 12.148 28.3502C11.1553 28.3923 10.2013 28.4947 9.29842 28.6558C9.43829 28.3537 9.53733 26.3627 7.71624 23.2268C7.71624 23.2268 6.78577 19.6063 6.69356 18.9286C6.98836 18.9452 7.24078 18.9437 7.42851 18.9618C7.5133 18.9701 7.60891 18.9757 7.70911 18.9801C7.67097 19.0625 7.68072 19.1602 7.77659 19.2366ZM18.3591 23.2443C18.2342 22.6558 17.9295 21.7783 17.6128 20.9453C17.684 20.9397 17.7534 20.9037 17.8009 20.8237C18.1302 20.268 18.4915 19.735 18.8855 19.2232C18.9525 19.1362 18.9471 19.0501 18.9039 18.9831C19.03 18.9786 19.1474 18.9718 19.2511 18.9618C19.41 18.9465 19.615 18.9455 19.8529 18.9355C19.7549 19.632 18.8311 23.2268 18.8311 23.2268C18.6771 23.4919 18.5386 23.7476 18.4115 23.9955C18.4252 23.7508 18.413 23.4981 18.3591 23.2443ZM22.0116 20.1007C22.4439 19.9347 23.0437 19.6185 23.2035 19.1043C23.4304 18.3734 23.5142 17.75 23.4723 16.9956C23.5748 16.8596 23.6694 16.7187 23.7601 16.5756C23.76 16.5988 23.7598 16.6228 23.7598 16.6461C23.7501 18.7956 23.6126 19.9819 23.1177 20.848C22.6034 21.7482 21.4031 22.6484 21.7032 21.9625C21.8512 21.6242 21.9573 20.8372 22.0116 20.1007ZM22.0032 18.5332C21.9835 18.5004 21.9197 18.4739 21.8272 18.454C22.1372 18.2917 22.4531 18.0767 22.7662 17.783C22.8096 17.7423 22.8504 17.6993 22.8925 17.6575C22.9918 18.2146 22.9925 19.1214 22.0482 19.4034C22.0611 18.9528 22.0474 18.6066 22.0032 18.5332ZM23.6878 10.8171C24.1751 11.4534 24.4354 12.5631 24.386 13.7351C24.0558 14.2122 23.7909 15.0664 23.7633 16.1945C23.6689 16.3689 23.5654 16.5346 23.452 16.689C23.3659 15.7909 22.7747 17.2043 22.7747 17.2043C22.7747 17.2043 22.7936 17.2542 22.8181 17.3389C22.8217 17.3513 22.8255 17.3666 22.8294 17.3804C22.3118 17.8539 21.7326 18.19 21.2312 18.4131C20.7064 18.4234 20.0825 18.5293 19.9086 18.7618C18.845 18.8256 17.3094 18.6064 16.8078 18.5546C16.6342 18.5367 16.5173 18.5066 16.4357 18.4661L16.3509 18.4097C16.2349 18.3032 16.2549 18.1484 16.229 17.9545C16.1861 17.633 17.6435 16.4541 17.6435 16.4541L18.0723 16.2183C18.0723 16.2183 19.8273 17.4441 21.3516 16.4755C22.8759 15.5071 22.9162 14.1179 22.509 12.339C22.1018 10.5599 20.2923 9.90075 20.1941 9.8468C19.5564 9.49624 18.844 9.65972 17.9438 10.1995C17.0436 10.7393 16.7863 11.5888 16.8078 11.9745C16.8291 12.3603 16.7005 12.9391 16.4219 13.0892C16.1434 13.2392 14.5144 13.5606 13.8563 13.6035C13.5916 13.6208 13.4777 13.5192 13.4388 13.3662C13.448 13.2629 13.4434 13.157 13.4324 13.0609C13.455 12.8872 13.505 12.7018 13.5284 12.5533C13.5927 12.146 15.0074 10.86 15.9076 9.8468C16.8078 8.83345 17.858 8.00944 19.8639 8.20226C21.8699 8.39522 22.9162 9.80984 23.6878 10.8171ZM25.3468 13.474C25.1542 13.2673 24.9222 13.256 24.6954 13.4113C24.6946 13.1891 24.6809 12.9669 24.6523 12.7462C24.4642 11.2919 23.4702 9.30916 21.6978 8.46303C21.6951 8.4478 21.6889 8.43218 21.6743 8.4177C21.6468 8.3906 21.626 8.36325 21.6069 8.32977C21.5981 8.31479 21.5868 8.30555 21.5747 8.2988L21.5668 8.28107C21.5414 8.24435 21.5096 8.21638 21.4739 8.19315C21.4536 8.17104 21.4324 8.14981 21.4091 8.1307C21.4842 8.14656 21.5592 8.16217 21.6387 8.18078C21.1387 7.7162 20.5827 7.13209 20.0349 6.41323C19.6019 5.84536 19.2536 5.29784 18.974 4.80153C19.2311 4.94441 20.0028 4.94441 20.0028 4.94441C19.5456 4.60146 19.3454 3.7155 19.3454 3.7155C19.6599 3.85837 20.0028 3.7727 20.0028 3.7727C19.6883 3.42975 19.5169 2.80106 19.5169 2.80106C19.8598 2.82966 19.8598 2.65819 19.8598 2.65819C19.6313 2.51532 17.9737 1.02926 17.0021 0.543442C16.3869 0.23584 15.9608 0.647099 15.7308 0.99017C15.5992 1.18674 15.5632 1.43053 15.6367 1.65533C15.7888 2.12116 15.9924 2.99826 15.4304 3.144C14.6587 3.34408 14.5444 1.9723 14.5729 1.22933C14.6016 0.486115 14.1444 0.000423431 13.3155 0.000423431C12.4867 0.000423431 11.8866 1.00066 11.8866 1.00066C11.8866 1.00066 12.4583 1.08633 12.6297 1.20073C12.8012 1.31513 13.2012 2.22944 12.7725 2.80106C12.344 3.37268 11.8296 2.82966 11.6008 2.57251C11.3722 2.31524 11.5723 0.800587 11.2865 0.486115C11.0008 0.171894 9.31462 0.914864 8.543 1.57215C7.77147 2.22944 6.85699 2.34384 6.85699 2.34384C6.85699 2.71526 7.34274 2.68679 7.34274 2.68679C7.22849 3.08681 6.88553 3.54403 6.88553 3.54403L7.34274 3.68702C7.37134 4.20132 6.91407 4.60146 6.91407 4.60146H7.42851C7.32508 5.01559 7.17142 5.49055 6.9392 5.99622C6.48857 6.97773 5.91521 7.69796 5.45663 8.18078C5.56605 8.18365 5.66884 8.18103 5.7669 8.17529C3.49865 8.73904 2.24171 11.0888 2.0273 12.7462C1.99388 13.0044 1.98192 13.2641 1.98647 13.5239C1.71937 13.2589 1.43139 13.226 1.20049 13.474C0.60034 14.1179 0.428867 21.3962 1.20049 22.4937C1.87548 23.454 4.57475 26.9936 5.70348 28.1772C5.48493 28.1277 5.25344 28.1008 5.01366 28.1008C3.67427 28.1008 2.58451 28.9322 2.58451 29.9542C2.58451 30 2.58857 30.045 2.59296 30.0901L2.59281 30.0906L2.59311 30.0911C2.61637 30.3306 2.69893 30.5575 2.83103 30.763L2.83162 30.7646L2.83298 30.7665C2.8946 30.8616 2.96699 30.952 3.04812 31.0374L4.60923 33.0033C5.15758 33.5492 6.01731 33.6259 6.65356 33.1858C8.01295 32.2529 10.017 31.614 12.2884 31.4903C12.941 31.4548 13.7792 31.4654 14.3828 31.4903C16.6556 31.5841 18.6582 32.2529 20.0177 33.1858C20.6539 33.6259 21.5137 33.5492 22.062 33.0033L23.623 31.0374C23.7043 30.952 23.7767 30.8616 23.8381 30.7665L23.8396 30.7646L23.8401 30.763C23.9723 30.5575 24.0548 30.3306 24.0782 30.0911L24.0784 30.0906L24.0783 30.0901C24.0826 30.045 24.0867 30 24.0867 29.9542C24.0867 28.9322 22.9969 28.1008 21.6575 28.1008C21.3564 28.1008 21.0681 28.143 20.8022 28.22C21.904 27.0834 24.6632 23.4663 25.3468 22.4937C26.1185 21.3962 25.947 14.1179 25.3468 13.474Z"
      fill="#231F20"
    />
<path
      d="M7.83654 18.0834C10.3657 18.0404 9.07972 17.5475 9.07972 17.5475C9.07972 17.5475 8.50098 16.8402 8.28657 16.9259C8.07231 17.0117 8.22233 17.3332 7.49358 17.376C6.76489 17.419 5.13996 17.9144 3.97854 16.0685C2.81712 14.2228 3.18554 13.9682 3.20691 13.7109C3.22838 13.4537 3.07836 12.5535 3.07836 12.5535C3.07836 12.6177 2.34961 14.4396 3.31409 15.79C4.27857 17.1402 5.30743 18.1262 7.83654 18.0834Z"
      fill="#231F20"
    />
<path
      d="M17.922 9.01291C16.8074 9.31864 14.9641 12.2102 14.6212 12.3817C14.2783 12.5531 14.1283 12.7246 14.2783 12.8103C14.4284 12.8961 15.1882 12.7031 15.5691 12.7031C15.9501 12.7031 16.2073 12.5746 16.2288 12.3817C16.2501 12.1888 16.1001 11.3527 16.5716 10.7742C17.0433 10.1955 17.7933 9.01291 19.4437 9.01291H20.2797C20.2797 9.01291 19.3152 8.63075 17.922 9.01291Z"
      fill="#231F20"
    />
<path
      d="M10.1084 10.7742C10.5799 11.3527 10.4299 12.1888 10.4514 12.3817C10.4728 12.5746 10.73 12.7031 11.111 12.7031C11.492 12.7031 12.2518 12.8961 12.4018 12.8103C12.5518 12.7246 12.4018 12.5531 12.0589 12.3817C11.7159 12.2102 9.87264 9.31864 8.75816 9.01291C7.36496 8.63075 6.40039 9.01291 6.40039 9.01291H7.23631C8.88671 9.01291 9.63687 10.1955 10.1084 10.7742Z"
      fill="#231F20"
    />
<path
      d="M22.7025 16.0685C21.5409 17.9144 19.9162 17.419 19.1874 17.376C18.4586 17.3332 18.6087 17.0117 18.3943 16.9259C18.18 16.8402 17.6013 17.5475 17.6013 17.5475C17.6013 17.5475 16.3154 18.0404 18.8445 18.0834C21.3737 18.1262 22.4024 17.1402 23.3669 15.79C24.3314 14.4396 23.6027 12.6177 23.6027 12.5535C23.6027 12.5535 23.4526 13.4537 23.4741 13.7109C23.4955 13.9682 23.864 14.2228 22.7025 16.0685Z"
      fill="#231F20"
    />
<path
      d="M9.99764 25.3424C8.86837 23.6129 9.87163 22.364 10.1709 21.7357C10.4704 21.1074 10.686 21.3624 10.8355 21.2054C10.9848 21.0483 10.6004 20.2674 10.6004 20.2674C10.6004 20.2674 10.6515 18.9423 9.70143 21.1633C8.7512 23.3842 9.20669 24.6693 9.99131 26.0362C10.7759 27.4029 12.5683 27.4512 12.6221 27.4756C12.6221 27.4756 11.9209 27.0005 11.6973 26.9217C11.4738 26.8429 11.1268 27.0719 9.99764 25.3424Z"
      fill="#231F20"
    />
<path
      d="M15.7763 19.1302C15.65 19.2303 15.5373 19.9758 15.3996 20.3129C15.262 20.6498 15.2768 20.9263 15.4309 21.0186C15.5852 21.1109 16.341 21.2961 16.6561 21.9333C16.9712 22.5706 17.6926 23.684 17.096 25.1439C16.954 25.4914 16.7937 25.8833 16.7937 25.8833C16.7937 25.8833 17.4631 25.1754 17.6461 23.7977C17.7925 22.6955 16.032 19.9651 16.012 19.5965C15.9922 19.228 15.9025 19.03 15.7763 19.1302Z"
      fill="#231F20"
    />
<path
      d="M6.36328 11.9132C6.46094 11.9951 8.77277 13.9226 10.1353 14.4246C11.295 14.8517 12.8396 16.296 13.1371 16.5811C13.1944 16.6362 13.2684 16.6638 13.3424 16.6638C13.4151 16.6638 13.4878 16.6372 13.5449 16.5839C14.4218 15.765 14.919 15.3404 15.0363 15.2717C15.2932 15.2322 16.1233 14.8784 16.4678 14.6723C16.8601 14.4382 20.3202 12.2449 20.4672 12.1516L20.2836 11.862C20.2477 11.8847 16.6802 14.1462 16.2921 14.378C15.9178 14.6015 15.1161 14.9185 14.9962 14.9325C14.9098 14.9325 14.8123 14.9325 13.3429 16.3035C12.8746 15.8578 11.419 14.5318 10.2539 14.1027C8.94717 13.6213 6.60672 11.6699 6.5833 11.6503L6.36328 11.9132Z"
      fill="#231F20"
    />
<path
      d="M6.23847 31.704C6.24636 31.7461 6.247 31.7807 6.24056 31.8072C6.22944 31.8559 6.19758 31.8943 6.1447 31.9226C6.09323 31.9502 6.04064 31.9534 5.98683 31.9323C5.93316 31.9112 5.8855 31.8613 5.84443 31.7821C5.80345 31.7031 5.78769 31.6329 5.79808 31.5718C5.80827 31.5107 5.84199 31.4646 5.89868 31.434C5.95453 31.4041 6.00439 31.3973 6.04806 31.4135C6.0725 31.4228 6.0982 31.4418 6.12513 31.4706C6.18856 31.4376 6.22041 31.4213 6.28422 31.3889C6.26041 31.3452 6.22178 31.3094 6.16782 31.2819C6.07049 31.2328 5.95698 31.242 5.82892 31.3106C5.7332 31.3619 5.66963 31.4344 5.63875 31.5264C5.60314 31.6322 5.61875 31.7462 5.68402 31.8689C5.74437 31.982 5.82209 32.0541 5.91565 32.0859C6.00917 32.1176 6.10738 32.1051 6.21148 32.0495C6.29554 32.0045 6.35276 31.9441 6.38335 31.8671C6.41408 31.7902 6.41799 31.7092 6.39418 31.6241C6.33173 31.6557 6.30066 31.6717 6.23847 31.704Z"
      fill="#231F20"
    />
<path
      d="M6.73268 31.5995C6.69896 31.5249 6.68219 31.4875 6.64838 31.4129C6.7961 31.3418 6.8702 31.3073 7.01929 31.2403C6.99767 31.1893 6.98694 31.1638 6.96538 31.1128C6.81522 31.1804 6.74034 31.2152 6.59139 31.287C6.56364 31.2254 6.54968 31.1946 6.52193 31.1331C6.6857 31.0541 6.76815 31.0159 6.93353 30.942C6.91172 30.8899 6.90075 30.8639 6.87889 30.8119C6.64765 30.9152 6.53291 30.9693 6.30469 31.0822C6.43884 31.3708 6.50583 31.5152 6.63999 31.8037C6.86459 31.6927 6.97783 31.6395 7.2055 31.538C7.18341 31.4852 7.17233 31.4588 7.15022 31.406C6.98246 31.4806 6.89888 31.5195 6.73268 31.5995Z"
      fill="#231F20"
    />
<path
      d="M7.51412 30.5444C7.59169 30.7529 7.63041 30.8571 7.70813 31.0654C7.50787 30.9057 7.40581 30.8273 7.19808 30.6738C7.12847 30.7032 7.09378 30.718 7.02441 30.7481C7.14506 31.0431 7.20525 31.1906 7.3259 31.4856C7.38459 31.4599 7.41395 31.4474 7.47274 31.4225C7.38933 31.2122 7.34761 31.1072 7.26404 30.897C7.47494 31.0534 7.57851 31.133 7.78155 31.2958C7.84512 31.2705 7.87693 31.2581 7.94074 31.2335C7.83228 30.9336 7.77813 30.7836 7.66974 30.4836C7.60738 30.5076 7.57626 30.5199 7.51412 30.5444Z"
      fill="#231F20"
    />
<path
      d="M8.41226 30.2181C8.14941 30.3047 8.01872 30.351 7.75879 30.4492C7.77772 30.5024 7.78709 30.529 7.80596 30.5823C7.90164 30.5462 7.94953 30.5285 8.04555 30.494C8.12956 30.7427 8.17151 30.867 8.25551 31.1157C8.32015 31.0925 8.3525 31.081 8.41729 31.0586C8.33576 30.809 8.29518 30.6842 8.21371 30.4344C8.30966 30.4012 8.35777 30.385 8.45397 30.3533C8.43724 30.2992 8.42894 30.2722 8.41226 30.2181Z"
      fill="#231F20"
    />
<path
      d="M9.03729 30.3802C9.02178 30.3937 8.99616 30.4058 8.96046 30.4164C8.88849 30.4378 8.85264 30.4487 8.78093 30.4708C8.75687 30.3885 8.74492 30.3473 8.72092 30.2648C8.79542 30.2417 8.83273 30.2305 8.90738 30.2084C8.94216 30.198 8.96957 30.1949 8.98948 30.199C9.02485 30.206 9.04875 30.2329 9.06129 30.2795C9.07299 30.3229 9.06495 30.3564 9.03729 30.3802ZM9.3341 30.7042C9.32799 30.6923 9.32019 30.6687 9.31107 30.6335C9.30555 30.6128 9.30288 30.6023 9.29756 30.5816C9.28341 30.5275 9.26521 30.4893 9.24302 30.4672C9.22081 30.4449 9.18945 30.4321 9.14861 30.4282C9.18887 30.401 9.21398 30.367 9.22383 30.3263C9.23399 30.2854 9.23433 30.2467 9.22472 30.21C9.21692 30.1795 9.20496 30.1538 9.18862 30.1327C9.17237 30.1118 9.1531 30.094 9.1308 30.0792C9.10373 30.0613 9.07339 30.0505 9.03997 30.0469C9.00665 30.0433 8.96177 30.0489 8.90567 30.0644C8.74941 30.1102 8.6715 30.1342 8.51611 30.1843C8.60847 30.4899 8.65452 30.6426 8.74712 30.9482C8.81029 30.9278 8.84185 30.9179 8.90533 30.8981C8.8703 30.7779 8.85274 30.7178 8.81776 30.5977C8.88225 30.5777 8.9146 30.5678 8.97933 30.5484C9.02554 30.5347 9.05924 30.5337 9.08056 30.5452C9.10178 30.5567 9.11934 30.5869 9.13349 30.636C9.14163 30.6644 9.14578 30.6786 9.15398 30.7072C9.16057 30.7299 9.16871 30.7514 9.17886 30.7717C9.18373 30.7815 9.19105 30.7941 9.20072 30.8098C9.27268 30.7891 9.30862 30.779 9.38073 30.7592L9.37571 30.7399C9.35742 30.7347 9.3436 30.7227 9.3341 30.7042Z"
      fill="#231F20"
    />
<path
      d="M9.66745 30.372C9.68032 30.2393 9.6872 30.1728 9.70169 30.0398C9.77082 30.1527 9.80501 30.2092 9.87259 30.3224C9.79047 30.3417 9.74935 30.3516 9.66745 30.372ZM9.56567 29.8852C9.52055 30.2256 9.50079 30.3958 9.46729 30.7356C9.53572 30.7171 9.56997 30.7081 9.63851 30.6906C9.64437 30.6214 9.64739 30.5867 9.65373 30.5174C9.77033 30.4879 9.82893 30.4738 9.94601 30.4467C9.98098 30.506 9.99845 30.5358 10.0329 30.5953C10.1043 30.5791 10.14 30.5711 10.2115 30.5557C10.0365 30.2665 9.94635 30.1228 9.76072 29.8381C9.68267 29.8565 9.64364 29.8659 9.56567 29.8852Z"
      fill="#231F20"
    />
<path
      d="M10.4526 30.3601C10.4049 30.1021 10.3811 29.9732 10.3334 29.7153C10.2641 29.7289 10.2294 29.7359 10.1602 29.7503C10.2215 30.0641 10.2521 30.2211 10.3136 30.5347C10.5372 30.4882 10.6495 30.467 10.8744 30.429C10.8655 30.3722 10.861 30.3439 10.8518 30.287C10.6919 30.3141 10.6121 30.3288 10.4526 30.3601Z"
      fill="#231F20"
    />
<path
      d="M11.693 30.1587C11.6743 30.1703 11.6477 30.1783 11.6129 30.1823C11.5347 30.1915 11.4956 30.1963 11.4176 30.2066C11.4072 30.1219 11.402 30.0797 11.3916 29.995C11.4717 29.9845 11.5117 29.9795 11.592 29.97C11.6271 29.9662 11.6549 29.9677 11.675 29.9742C11.7113 29.9858 11.7314 30.0124 11.7357 30.0537C11.7407 30.1027 11.7264 30.1375 11.693 30.1587ZM11.3538 29.6886C11.4261 29.679 11.4622 29.6745 11.5345 29.6658C11.5742 29.6612 11.6084 29.6609 11.6339 29.6671C11.6642 29.6743 11.6822 29.6984 11.686 29.7354C11.6895 29.7688 11.6807 29.7934 11.6599 29.809C11.639 29.8246 11.6107 29.8346 11.5749 29.8388C11.4951 29.8482 11.455 29.8531 11.3754 29.8635C11.3666 29.7936 11.3624 29.7585 11.3538 29.6886ZM11.7641 29.8732C11.7901 29.8565 11.8097 29.8394 11.8222 29.8213C11.8448 29.7892 11.8539 29.749 11.8494 29.7003C11.8449 29.6532 11.8287 29.6138 11.7997 29.5825C11.752 29.5318 11.6767 29.511 11.5743 29.5213C11.4125 29.54 11.3315 29.5504 11.1699 29.5734C11.2123 29.8905 11.2334 30.049 11.2756 30.3662C11.4191 30.3457 11.4909 30.3365 11.6348 30.3196C11.6753 30.3147 11.7126 30.307 11.7465 30.296C11.7804 30.2849 11.8091 30.2684 11.833 30.2465C11.8539 30.2271 11.8708 30.2043 11.8838 30.1779C11.9041 30.138 11.9123 30.0947 11.9079 30.0475C11.9036 30.0016 11.8897 29.9635 11.8656 29.9337C11.8415 29.9037 11.8075 29.8836 11.7641 29.8732Z"
      fill="#231F20"
    />
<path
      d="M12.2709 29.9556C12.3045 29.8267 12.3217 29.7625 12.3569 29.6337C12.4069 29.7568 12.4315 29.8183 12.4798 29.9416C12.3963 29.9466 12.3544 29.9495 12.2709 29.9556ZM12.248 29.458C12.15 29.7861 12.1038 29.9504 12.0171 30.2798C12.087 30.2734 12.122 30.2704 12.1919 30.2648C12.2088 30.1975 12.2172 30.1638 12.2344 30.0964C12.3534 30.0873 12.413 30.0835 12.5321 30.0766C12.5572 30.141 12.5695 30.1734 12.5941 30.2378C12.6666 30.2339 12.703 30.2322 12.7755 30.2292C12.6497 29.9141 12.5838 29.7572 12.4468 29.4449C12.3673 29.4497 12.3276 29.4522 12.248 29.458Z"
      fill="#231F20"
    />
<path
      d="M13.3683 29.4158C13.3688 29.639 13.369 29.7507 13.3695 29.9739C13.2398 29.751 13.1727 29.6403 13.0341 29.4201C12.9603 29.4218 12.9233 29.4229 12.8496 29.4255C12.8602 29.7455 12.8655 29.9054 12.8761 30.2253C12.9385 30.2231 12.9698 30.2221 13.0322 30.2208C13.0268 29.9936 13.0242 29.88 13.019 29.653C13.1595 29.8768 13.2274 29.9895 13.3588 30.216C13.4257 30.2157 13.4592 30.2159 13.5264 30.2164C13.5286 29.8964 13.5299 29.7364 13.5321 29.4162C13.4666 29.4157 13.4337 29.4156 13.3683 29.4158Z"
      fill="#231F20"
    />
<path
      d="M14.198 29.4351C14.0618 29.5604 13.995 29.6238 13.8639 29.7521C13.8674 29.6201 13.8692 29.5543 13.8729 29.4224C13.8036 29.4203 13.7691 29.4194 13.6998 29.4183C13.6943 29.7382 13.6915 29.8982 13.686 30.2183C13.752 30.2196 13.7849 30.2204 13.8509 30.2222C13.8539 30.1153 13.8553 30.0617 13.8583 29.9548C13.892 29.9231 13.9088 29.9072 13.9429 29.8758C14.0393 30.0189 14.0866 30.0908 14.1786 30.2354C14.2648 30.2398 14.3077 30.2422 14.3938 30.2478C14.267 30.0507 14.2017 29.953 14.0668 29.7586C14.2074 29.6327 14.279 29.5705 14.4249 29.448C14.3341 29.4423 14.2887 29.4398 14.198 29.4351Z"
      fill="#231F20"
    />
<path
      d="M15.3296 30.1437C15.2848 30.1872 15.2291 30.2051 15.1626 30.1973C15.0962 30.1896 15.0455 30.1596 15.0104 30.1068C14.9754 30.0542 14.9618 29.9829 14.9702 29.8932C14.9787 29.8036 15.0056 29.7365 15.0512 29.6922C15.0969 29.6478 15.1546 29.6295 15.2233 29.6375C15.2921 29.6453 15.3441 29.6763 15.3787 29.7302C15.4131 29.7838 15.4246 29.8554 15.4138 29.9444C15.4028 30.0337 15.3745 30.1002 15.3296 30.1437ZM15.2385 29.4965C15.1188 29.4826 15.0232 29.5083 14.9549 29.5601C14.8686 29.6257 14.8124 29.731 14.8002 29.8771C14.7881 30.0202 14.8237 30.1335 14.8946 30.2173C14.9496 30.2825 15.0334 30.3248 15.1474 30.3381C15.2613 30.3512 15.3522 30.3291 15.4199 30.278C15.5068 30.2124 15.5656 30.1099 15.5845 29.9676C15.6037 29.8223 15.5717 29.7068 15.5018 29.6232C15.4464 29.557 15.3586 29.5103 15.2385 29.4965Z"
      fill="#231F20"
    />
<path
      d="M15.6577 30.3833C15.7238 30.3932 15.7568 30.3983 15.8227 30.4089C15.8428 30.2765 15.8528 30.2102 15.8729 30.0776C16.0166 30.1008 16.0885 30.1132 16.2317 30.1398C16.2413 30.0851 16.2461 30.0577 16.2556 30.0029C16.1111 29.9762 16.0388 29.9637 15.8936 29.9402C15.9046 29.8675 15.9101 29.8312 15.9212 29.7584C16.0885 29.7854 16.1719 29.8 16.3386 29.8314C16.3484 29.7761 16.3533 29.7484 16.3631 29.6931C16.1261 29.6482 16.0073 29.6281 15.769 29.5925C15.7245 29.9088 15.7022 30.0671 15.6577 30.3833Z"
      fill="#231F20"
    />
<path
      d="M17.3024 29.8984C17.2511 30.1154 17.2255 30.2238 17.1741 30.4406C17.099 30.1919 17.0593 30.0678 16.975 29.8198C16.9025 29.8031 16.8663 29.7951 16.7938 29.7792C16.7297 30.0925 16.6977 30.2491 16.6338 30.5623C16.6952 30.5756 16.7261 30.5825 16.7874 30.5964C16.8349 30.3748 16.8586 30.2639 16.9062 30.042C16.9915 30.2941 17.0317 30.4204 17.1074 30.6731C17.1729 30.6895 17.2057 30.698 17.2711 30.7151C17.3477 30.405 17.386 30.2499 17.4626 29.9397C17.3985 29.9229 17.3665 29.9147 17.3024 29.8984Z"
      fill="#231F20"
    />
<path
      d="M17.6106 29.9792C17.5311 30.2886 17.4915 30.4434 17.4121 30.7527C17.4771 30.7706 17.5094 30.7796 17.5743 30.7981C17.6569 30.4895 17.6981 30.3354 17.7807 30.0268C17.7126 30.0074 17.6786 29.9978 17.6106 29.9792Z"
      fill="#231F20"
    />
<path
      d="M18.1711 30.6718C18.244 30.6953 18.2804 30.7074 18.3531 30.7319C18.3292 30.7788 18.2949 30.8116 18.2503 30.8306C18.206 30.8497 18.1565 30.8504 18.1018 30.8327C18.0461 30.8147 18.0021 30.7795 17.9694 30.7268C17.9371 30.6741 17.9338 30.6008 17.9609 30.5065C17.9878 30.4129 18.0287 30.3491 18.0839 30.3156C18.1393 30.2821 18.1996 30.2757 18.2647 30.2965C18.2984 30.3076 18.3276 30.3232 18.3517 30.3437C18.3948 30.3806 18.4145 30.4273 18.4108 30.4835C18.4763 30.5055 18.5091 30.5167 18.5745 30.5395C18.5894 30.4633 18.5739 30.39 18.5273 30.3199C18.4808 30.2497 18.4055 30.1974 18.3022 30.164C18.183 30.1258 18.0757 30.1336 17.9823 30.1869C17.8886 30.2402 17.8254 30.3297 17.7912 30.4543C17.7572 30.5773 17.7668 30.685 17.8144 30.7762C17.8609 30.8653 17.9344 30.9275 18.0369 30.9602C18.099 30.9802 18.1554 30.9844 18.206 30.9729C18.2354 30.9662 18.2714 30.9503 18.3141 30.925C18.3085 30.9652 18.3057 30.9853 18.3001 31.0254C18.3428 31.0399 18.3642 31.0473 18.4067 31.062C18.4599 30.8993 18.4865 30.8179 18.5397 30.6552C18.408 30.6094 18.3421 30.5873 18.2097 30.5445C18.1942 30.5955 18.1866 30.621 18.1711 30.6718Z"
      fill="#231F20"
    />
<path
      d="M18.9391 30.5559C19.1077 30.6188 19.1916 30.6513 19.359 30.7192C19.3789 30.6663 19.3889 30.6398 19.409 30.5871C19.1754 30.4924 19.0579 30.4475 18.8216 30.3623C18.7193 30.6646 18.6681 30.8157 18.5659 31.1178C18.7985 31.2016 18.9142 31.2461 19.1443 31.3396C19.1648 31.286 19.1749 31.2592 19.1954 31.2056C19.0259 31.1368 18.9407 31.1036 18.7697 31.0399C18.7968 30.9624 18.8103 30.9237 18.8374 30.8463C18.9894 30.9029 19.0651 30.9323 19.2158 30.9929C19.2354 30.9412 19.2452 30.9152 19.2649 30.8635C19.1127 30.8023 19.0364 30.7727 18.8831 30.7156C18.9056 30.6518 18.9167 30.6199 18.9391 30.5559Z"
      fill="#231F20"
    />
<path
      d="M19.8484 31.1437C19.8278 31.1439 19.8003 31.1364 19.7657 31.121C19.6962 31.0901 19.6614 31.075 19.5917 31.045C19.6238 30.9656 19.6398 30.9258 19.6718 30.8464C19.7443 30.8777 19.7804 30.8934 19.8526 30.9255C19.8861 30.9403 19.9096 30.956 19.9225 30.9723C19.946 31.0012 19.948 31.0376 19.9292 31.082C19.9116 31.123 19.8847 31.1437 19.8484 31.1437ZM20.0279 31.2251C20.061 31.2004 20.0853 31.1707 20.1005 31.136C20.1131 31.1074 20.1195 31.0796 20.1197 31.0526C20.12 31.0258 20.1159 30.9993 20.1075 30.9731C20.0973 30.9413 20.08 30.913 20.0562 30.8881C20.0322 30.8634 19.9936 30.8383 19.9402 30.8132C19.7894 30.7457 19.7136 30.713 19.5617 30.6496C19.4455 30.9463 19.3873 31.0948 19.271 31.3915C19.3329 31.4174 19.3638 31.4304 19.4254 31.4569C19.4722 31.341 19.4955 31.2831 19.5423 31.1672C19.6051 31.1941 19.6364 31.2078 19.699 31.2354C19.7437 31.2553 19.7706 31.2768 19.7803 31.2996C19.7898 31.3225 19.7849 31.3575 19.7658 31.4045C19.7547 31.432 19.7491 31.4457 19.738 31.4731C19.729 31.495 19.7222 31.5169 19.7176 31.5393C19.7154 31.55 19.7134 31.5646 19.7111 31.5831C19.7803 31.6146 19.8148 31.6306 19.8837 31.6628L19.8917 31.6446C19.8805 31.6285 19.8772 31.6101 19.8811 31.5894C19.8836 31.5764 19.8921 31.553 19.9066 31.5198C19.9152 31.5002 19.9195 31.4905 19.928 31.4707C19.9504 31.4196 19.9596 31.3782 19.9559 31.3465C19.9523 31.3149 19.9357 31.284 19.9059 31.2542C19.9544 31.2598 19.995 31.2502 20.0279 31.2251Z"
      fill="#231F20"
    />
<path
      d="M20.3349 30.9964C20.204 31.2868 20.1387 31.4319 20.0078 31.7221C20.0696 31.7517 20.1005 31.7667 20.1622 31.7974C20.2959 31.5085 20.363 31.3641 20.4969 31.0753C20.4322 31.0434 20.3998 31.0276 20.3349 30.9964Z"
      fill="#231F20"
    />
<path
      d="M20.831 31.8055C20.7546 31.7642 20.7165 31.7437 20.6397 31.7035C20.734 31.6115 20.7814 31.5658 20.8771 31.475C20.8594 31.6075 20.8501 31.6735 20.831 31.8055ZM20.2539 31.843C20.3185 31.8754 20.3508 31.8918 20.4153 31.9252C20.4636 31.8766 20.4881 31.8523 20.5369 31.8041C20.6463 31.8612 20.7009 31.8903 20.8094 31.9496C20.799 32.0185 20.7938 32.0528 20.7831 32.1215C20.849 32.1579 20.882 32.1764 20.9477 32.2136C20.9945 31.8749 21.0152 31.7046 21.0511 31.3624C20.9785 31.3231 20.9422 31.3035 20.8692 31.2654C20.6182 31.4925 20.4952 31.6082 20.2539 31.843Z"
      fill="#231F20"
    />
<path
      d="M7.83408 18.0829C5.30498 18.1257 4.27612 17.1397 3.31164 15.7896C2.34716 14.4391 3.07591 12.6173 3.07591 12.5531C3.07591 12.5531 3.22593 13.4533 3.20446 13.7104C3.18309 13.9677 2.81467 14.2223 3.97608 16.0681C5.1375 17.9139 6.76243 17.4185 7.49112 17.3755C8.21988 17.3327 8.06986 17.0112 8.28412 16.9254C8.49853 16.8398 9.07726 17.547 9.07726 17.547C9.07726 17.547 10.3632 18.0399 7.83408 18.0829ZM8.75578 9.01283C9.87026 9.31856 11.7135 12.2101 12.0565 12.3816C12.3994 12.5531 12.5494 12.7245 12.3994 12.8102C12.2494 12.896 11.4896 12.7031 11.1086 12.7031C10.7277 12.7031 10.4704 12.5745 10.449 12.3816C10.4276 12.1888 10.5775 11.3526 10.106 10.7741C9.63448 10.1954 8.88432 9.01283 7.23393 9.01283H6.39801C6.39801 9.01283 7.36258 8.63067 8.75578 9.01283ZM10.449 17.9543C10.4917 17.6328 9.03434 16.4538 9.03434 16.4538L8.60561 16.2181C8.60561 16.2181 6.85058 17.4438 5.32645 16.4753C3.80216 15.5069 3.76182 14.1177 4.16902 12.3388C4.57629 10.5597 6.38571 9.90054 6.48372 9.84659C7.12158 9.49603 7.83408 9.65951 8.73431 10.1993C9.63448 10.7391 9.89173 11.5885 9.87026 11.9743C9.84879 12.3601 9.97744 12.9388 10.2561 13.089C10.5347 13.239 12.1636 13.5604 12.8218 13.6033C13.4798 13.6462 13.2138 12.9602 13.1496 12.5531C13.0853 12.1458 11.6707 10.8598 10.7705 9.84659C9.87026 8.83324 8.82002 8.00922 6.81399 8.20205C4.80796 8.39501 3.76182 9.80963 2.99015 10.8169C2.21852 11.8243 2.01396 14.0186 2.71143 15.7681C3.40911 17.5174 5.17634 18.3829 6.10813 18.6615C7.03977 18.9401 9.24875 18.6187 9.87026 18.5544C10.4917 18.4902 10.4061 18.2757 10.449 17.9543Z"
      fill="#D8AF7F"
    />
<path
      d="M23.3653 15.7896C22.4008 17.1397 21.3721 18.1257 18.843 18.0829C16.3138 18.0399 17.5997 17.547 17.5997 17.547C17.5997 17.547 18.1784 16.8398 18.3927 16.9254C18.6072 17.0112 18.4571 17.3327 19.1858 17.3755C19.9146 17.4185 21.5393 17.9139 22.7009 16.0681C23.8624 14.2223 23.494 13.9677 23.4725 13.7104C23.451 13.4533 23.6011 12.5531 23.6011 12.5531C23.6011 12.6173 24.3299 14.4391 23.3653 15.7896ZM19.4429 9.01283C17.7925 9.01283 17.0426 10.1954 16.5709 10.7741C16.0994 11.3526 16.2494 12.1888 16.228 12.3816C16.2066 12.5745 15.9494 12.7031 15.5684 12.7031C15.1875 12.7031 14.4276 12.896 14.2775 12.8102C14.1275 12.7245 14.2775 12.5531 14.6205 12.3816C14.9634 12.2101 16.8067 9.31856 17.9213 9.01283C19.3144 8.63067 20.279 9.01283 20.279 9.01283H19.4429ZM23.6868 10.8169C22.9152 9.80963 21.8689 8.39501 19.8629 8.20205C17.857 8.00922 16.8068 8.83324 15.9066 9.84659C15.0064 10.8598 13.5918 12.1458 13.5274 12.5531C13.463 12.9602 13.1972 13.6462 13.8553 13.6033C14.5134 13.5604 16.1424 13.239 16.4209 13.089C16.6995 12.9388 16.8281 12.3601 16.8068 11.9743C16.7853 11.5885 17.0426 10.7391 17.9428 10.1993C18.843 9.65951 19.5555 9.49603 20.1932 9.84659C20.2913 9.90054 22.1008 10.5597 22.508 12.3388C22.9152 14.1177 22.8749 15.5069 21.3506 16.4753C19.8264 17.4438 18.0713 16.2181 18.0713 16.2181L17.6425 16.4538C17.6425 16.4538 16.1851 17.6328 16.228 17.9543C16.2709 18.2757 16.1851 18.4902 16.8068 18.5544C17.4282 18.6187 19.6371 18.9401 20.5689 18.6615C21.5006 18.3829 23.2679 17.5174 23.9654 15.7681C24.6629 14.0186 24.4584 11.8243 23.6868 10.8169Z"
      fill="#D8AF7F"
    />
<path
      d="M17.6447 23.7974C17.4617 25.1752 16.7923 25.883 16.7923 25.883C16.7923 25.883 16.9526 25.4912 17.0946 25.1436C17.6912 23.6838 16.9698 22.5704 16.6547 21.9331C16.3396 21.2959 15.5838 21.1107 15.4295 21.0184C15.2754 20.9261 15.2606 20.6496 15.3982 20.3126C15.5359 19.9756 15.6486 19.2301 15.7749 19.1299C15.9011 19.0298 15.9908 19.2277 16.0106 19.5963C16.0306 19.9648 17.7911 22.6953 17.6447 23.7974ZM9.98972 26.036C9.20511 24.6691 8.74961 23.384 9.69984 21.1631C10.6499 18.9421 10.5988 20.2672 10.5988 20.2672C10.5988 20.2672 10.9832 21.0481 10.8339 21.2052C10.6844 21.3622 10.4688 21.1072 10.1693 21.7355C9.87004 22.3638 8.86678 23.6127 9.99605 25.3422C11.1252 27.0717 11.4722 26.8427 11.6957 26.9215C11.9193 27.0003 12.6205 27.4754 12.6205 27.4754C12.5667 27.451 10.7743 27.4027 9.98972 26.036ZM16.2618 18.5642C15.9433 18.3524 15.4639 17.8563 15.2621 18.4548C15.06 19.0533 14.7412 20.6164 14.7663 20.92C14.7915 21.2236 15.2307 21.5574 15.5622 21.6852C15.8936 21.8129 17.4791 23.4626 15.6527 25.793C15.5884 25.8753 14.8357 26.9063 13.1956 26.5899C11.5555 26.2736 10.4041 25.7095 10.1424 23.9929C9.88053 22.2761 11.5436 21.1897 11.5436 21.1897L11.5007 20.7209C11.5007 20.7209 11.0382 18.9832 10.7528 18.8989C10.4676 18.8145 10.3187 18.6572 10.0401 19.1826C9.7614 19.708 8.69311 21.5397 8.59023 22.4698C8.48729 23.4 8.57482 25.2927 9.79082 26.575C11.0067 27.8574 12.9223 28.511 14.0465 28.2116C15.1709 27.9121 16.7361 27.5246 17.6232 25.8235C18.5102 24.1222 18.1982 22.8797 17.6732 21.698C17.1483 20.5163 16.5804 18.7759 16.2618 18.5642Z"
      fill="#D8AF7F"
    />
</g>
<defs>
<clipPath id="clip0_8217_194986">
<rect
        width="25.1792"
        height="33.4703"
        fill="white"
        transform="translate(0.682129)"
      />
</clipPath>
</defs>
</svg>
