<svg width="234" height="242" viewBox="0 0 234 242" fill="none" xmlns="http://www.w3.org/2000/svg">
<g opacity="0.1">
<path d="M93.4969 92.1889L107.491 82.3985L121.486 72.6064L177.463 33.4392C206.742 12.9536 246.508 18.6024 269.026 45.4983M269.026 45.4983C270.285 47.0022 271.49 48.5726 272.636 50.2086C294.283 81.1011 286.769 123.68 255.854 145.311L143.899 223.645C112.984 245.276 70.3737 237.768 48.7265 206.876C33.222 184.75 32.6767 156.628 44.9747 134.502M269.026 45.4983C281.323 23.3723 280.778 -4.74918 265.273 -26.8757C243.626 -57.7683 201.017 -65.2761 170.1 -43.6449L58.1457 34.6887C27.2304 56.3203 19.7171 98.8996 41.3642 129.792C42.5105 131.427 43.7156 132.998 44.9747 134.502M220.503 87.8101L192.514 107.394L136.537 146.561C107.259 167.047 67.4916 161.398 44.9747 134.502" stroke="#0765FF" stroke-width="2" stroke-linecap="round" stroke-linejoin="round"/>
</g>
</svg>
