<svg width="234" height="242" viewBox="0 0 234 242" fill="none" xmlns="http://www.w3.org/2000/svg">
<g opacity="0.1">
<path d="M67.1562 237.203C101.596 237.203 129.516 209.284 129.516 174.844C129.516 140.404 101.596 112.484 67.1562 112.484C32.7161 112.484 4.79688 140.404 4.79688 174.844C4.79688 209.284 32.7161 237.203 67.1562 237.203Z" stroke="#0765FF" stroke-width="2" stroke-miterlimit="10"/>
<path d="M153.5 -60.2031C71.3727 -60.2031 4.79688 6.3727 4.79688 88.5C4.79688 95.4747 5.31973 102.32 6.25033 109.04C14.7792 56.5912 60.2679 16.5469 115.125 16.5469C176.06 16.5469 225.453 65.9403 225.453 126.875C225.453 181.732 185.409 227.221 132.96 235.75C139.675 236.675 146.525 237.203 153.5 237.203C235.627 237.203 302.203 170.627 302.203 88.5C302.203 6.3727 235.627 -60.2031 153.5 -60.2031Z" stroke="#0765FF" stroke-width="2" stroke-miterlimit="10"/>
<path d="M115.125 16.5469C54.1903 16.5469 4.79688 65.9403 4.79688 126.875C4.79688 136.402 6.00569 145.645 8.27461 154.462C16.7267 130.046 39.8668 112.484 67.1562 112.484C101.598 112.484 129.516 140.402 129.516 174.844C129.516 202.133 111.954 225.273 87.5382 233.725C96.3548 235.994 105.598 237.203 115.125 237.203C176.06 237.203 225.453 187.81 225.453 126.875C225.453 65.9403 176.06 16.5469 115.125 16.5469Z" stroke="#0765FF" stroke-width="2" stroke-miterlimit="10"/>
</g>
</svg>
