<!-- <svg stroke="#4AC759" fill="currentColor" stroke-width="0" viewBox="0 0 512 512" height="1em" width="1em" xmlns="http://www.w3.org/2000/svg"><path d="M260.062 32C138.605 32 40.134 129.701 40.134 250.232c0 41.23 11.532 79.79 31.559 112.687L32 480l121.764-38.682c31.508 17.285 67.745 27.146 106.298 27.146C381.535 468.464 480 370.749 480 250.232 480 129.701 381.535 32 260.062 32zm109.362 301.11c-5.174 12.827-28.574 24.533-38.899 25.072-10.314.547-10.608 7.994-66.84-16.434-56.225-24.434-90.052-83.844-92.719-87.67-2.669-3.812-21.78-31.047-20.749-58.455 1.038-27.413 16.047-40.346 21.404-45.725 5.351-5.387 11.486-6.352 15.232-6.413 4.428-.072 7.296-.132 10.573-.011 3.274.124 8.192-.685 12.45 10.639 4.256 11.323 14.443 39.153 15.746 41.989 1.302 2.839 2.108 6.126.102 9.771-2.012 3.653-3.042 5.935-5.961 9.083-2.935 3.148-6.174 7.042-8.792 9.449-2.92 2.665-5.97 5.572-2.9 11.269 3.068 5.693 13.653 24.356 29.779 39.736 20.725 19.771 38.598 26.329 44.098 29.317 5.515 3.004 8.806 2.67 12.226-.929 3.404-3.599 14.639-15.746 18.596-21.169 3.955-5.438 7.661-4.373 12.742-2.329 5.078 2.052 32.157 16.556 37.673 19.551 5.51 2.989 9.193 4.529 10.51 6.9 1.317 2.38.901 13.531-4.271 26.359z"></path></svg> -->

<svg stroke="white" fill="#4AC759" stroke-width="0" viewBox="0 0 16 16" height="10" width="10" xmlns="http://www.w3.org/2000/svg"><path d="M13.601 2.326A7.85 7.85 0 0 0 7.994 0C3.627 0 .068 3.558.064 7.926c0 1.399.366 2.76 1.057 3.965L0 16l4.204-1.102a7.9 7.9 0 0 0 3.79.965h.004c4.368 0 7.926-3.558 7.93-7.93A7.9 7.9 0 0 0 13.6 2.326zM7.994 14.521a6.6 6.6 0 0 1-3.356-.92l-.24-.144-2.494.654.666-2.433-.156-.251a6.56 6.56 0 0 1-1.007-3.505c0-3.626 2.957-6.584 6.591-6.584a6.56 6.56 0 0 1 4.66 1.931 6.56 6.56 0 0 1 1.928 4.66c-.004 3.639-2.961 6.592-6.592 6.592m3.615-4.934c-.197-.099-1.17-.578-1.353-.646-.182-.065-.315-.099-.445.099-.133.197-.513.646-.627.775-.114.133-.232.148-.43.05-.197-.1-.836-.308-1.592-.985-.59-.525-.985-1.175-1.103-1.372-.114-.198-.011-.304.088-.403.087-.088.197-.232.296-.346.1-.114.133-.198.198-.33.065-.134.034-.248-.015-.347-.05-.099-.445-1.076-.612-1.47-.16-.389-.323-.335-.445-.34-.114-.007-.247-.007-.38-.007a.73.73 0 0 0-.529.247c-.182.198-.691.677-.691 1.654s.71 1.916.81 2.049c.098.133 1.394 2.132 3.383 2.992.47.205.84.326 1.129.418.475.152.904.129 1.246.08.38-.058 1.171-.48 1.338-.943.164-.464.164-.86.114-.943-.049-.084-.182-.133-.38-.232"></path></svg>